<?xml version="1.0" standalone="no"?>
<!DOCTYPE svg PUBLIC "-//W3C//DTD SVG 20010904//EN"
 "http://www.w3.org/TR/2001/REC-SVG-20010904/DTD/svg10.dtd">
<svg version="1.0" xmlns="http://www.w3.org/2000/svg"
 width="512.000000pt" height="512.000000pt" viewBox="0 0 512.000000 512.000000"
 preserveAspectRatio="xMidYMid meet">
<metadata>
Created by potrace 1.13, written by Peter Selinger 2001-2015
</metadata>
<g transform="translate(0.000000,512.000000) scale(0.100000,-0.100000)"
fill="#000000" stroke="none">
<path d="M2620 4789 c-30 -5 -86 -24 -125 -43 -66 -33 -120 -85 -875 -843
-1566 -1572 -1494 -1498 -1535 -1585 -66 -144 -79 -223 -80 -473 0 -177 4
-233 18 -289 32 -125 92 -221 172 -274 24 -16 43 -31 40 -33 -2 -2 520 -207
1159 -456 789 -307 1183 -455 1227 -462 112 -18 244 14 336 82 26 20 517 505
1089 1079 995 996 1043 1045 1059 1097 22 67 16 160 -13 218 -39 76 -94 113
-273 181 -90 34 -167 62 -171 62 -5 0 -8 -69 -8 -154 l0 -154 32 -11 c48 -17
78 -50 78 -85 0 -28 -106 -137 -992 -1022 -546 -546 -1003 -997 -1015 -1003
-12 -6 -33 -11 -46 -11 -26 0 -2276 871 -2314 896 -61 39 -86 168 -73 374 9
136 27 228 58 301 39 91 123 159 195 159 21 0 409 -146 1012 -380 650 -253
1000 -384 1045 -392 86 -15 184 1 273 44 56 27 159 127 1034 1007 696 699 979
989 995 1021 27 54 35 152 18 207 -19 55 -56 108 -99 137 -31 22 -1644 657
-1956 771 -102 37 -184 48 -265 34z"/>
</g>
</svg>
